<svg width="120" height="131" viewBox="0 0 120 131" fill="none" xmlns="http://www.w3.org/2000/svg">
<g filter="url(#filter0_d_130_5044)">
<rect width="78" height="75" transform="translate(21 36)" fill="#1AB8DB"/>
</g>
<g opacity="0.2">
<path d="M3.35909 54.8766C-0.152909 49.2562 1.55627 41.853 7.17663 38.341L63.1478 3.36629C68.7682 -0.145706 76.1714 1.56347 79.6834 7.18384L114.658 63.155C118.17 68.7754 116.461 76.1786 110.841 79.6906L54.8694 114.665C49.249 118.177 41.8458 116.468 38.3338 110.848L3.35909 54.8766Z" fill="#1AB8DB"/>
</g>
<g opacity="0.4">
<path d="M6.30774 42.3451C4.48097 35.9745 8.16455 29.3291 14.5352 27.5024L77.9785 9.31029C84.3492 7.48352 90.9945 11.1671 92.8213 17.5378L111.013 80.981C112.84 87.3517 109.157 93.9971 102.786 95.8238L39.3426 114.016C32.9719 115.843 26.3266 112.159 24.4998 105.788L6.30774 42.3451Z" fill="#1AB8DB"/>
</g>
<path d="M12.837 42.2408C12.3747 35.6295 17.3595 29.8952 23.9707 29.4329L89.8099 24.829C96.4212 24.3667 102.155 29.3514 102.618 35.9627L107.222 101.802C107.684 108.413 102.699 114.147 96.088 114.61L30.2488 119.214C23.6375 119.676 17.9033 114.691 17.441 108.08L12.837 42.2408Z" fill="url(#paint0_linear_130_5044)"/>
<g clip-path="url(#clip0_130_5044)">
<g filter="url(#filter1_d_130_5044)">
<path d="M55.8739 87.9523L31.3949 66.6731L24.1449 74.954L56.9596 103.479L118.195 33.0363L109.918 25.8411L55.8739 87.9523Z" fill="url(#paint1_linear_130_5044)"/>
</g>
</g>
<defs>
<filter id="filter0_d_130_5044" x="5" y="24" width="110" height="107" filterUnits="userSpaceOnUse" color-interpolation-filters="sRGB">
<feFlood flood-opacity="0" result="BackgroundImageFix"/>
<feColorMatrix in="SourceAlpha" type="matrix" values="0 0 0 0 0 0 0 0 0 0 0 0 0 0 0 0 0 0 127 0" result="hardAlpha"/>
<feOffset dy="4"/>
<feGaussianBlur stdDeviation="8"/>
<feComposite in2="hardAlpha" operator="out"/>
<feColorMatrix type="matrix" values="0 0 0 0 0 0 0 0 0 0 0 0 0 0 0 0 0 0 0.35 0"/>
<feBlend mode="normal" in2="BackgroundImageFix" result="effect1_dropShadow_130_5044"/>
<feBlend mode="normal" in="SourceGraphic" in2="effect1_dropShadow_130_5044" result="shape"/>
</filter>
<filter id="filter1_d_130_5044" x="21.1449" y="22.8411" width="100.05" height="83.6383" filterUnits="userSpaceOnUse" color-interpolation-filters="sRGB">
<feFlood flood-opacity="0" result="BackgroundImageFix"/>
<feColorMatrix in="SourceAlpha" type="matrix" values="0 0 0 0 0 0 0 0 0 0 0 0 0 0 0 0 0 0 127 0" result="hardAlpha"/>
<feOffset/>
<feGaussianBlur stdDeviation="1.5"/>
<feComposite in2="hardAlpha" operator="out"/>
<feColorMatrix type="matrix" values="0 0 0 0 1 0 0 0 0 1 0 0 0 0 1 0 0 0 0.4 0"/>
<feBlend mode="normal" in2="BackgroundImageFix" result="effect1_dropShadow_130_5044"/>
<feBlend mode="normal" in="SourceGraphic" in2="effect1_dropShadow_130_5044" result="shape"/>
</filter>
<linearGradient id="paint0_linear_130_5044" x1="105.769" y1="24.7993" x2="82.3437" y2="133.612" gradientUnits="userSpaceOnUse">
<stop stop-color="#1593AF"/>
<stop offset="1" stop-color="#1AB8DB"/>
</linearGradient>
<linearGradient id="paint1_linear_130_5044" x1="69.3993" y1="28.6745" x2="74.5442" y2="102.25" gradientUnits="userSpaceOnUse">
<stop offset="0.233042" stop-color="#222222"/>
<stop offset="1" stop-color="#1593AF"/>
</linearGradient>
<clipPath id="clip0_130_5044">
<rect x="12" y="30.2781" width="90" height="90" rx="4" transform="rotate(-4 12 30.2781)" fill="white"/>
</clipPath>
</defs>
</svg>
